<svg xmlns="http://www.w3.org/2000/svg" fill="none" viewBox="0 0 1600 640"><g clip-path="url(#a)"><path fill="#ECE0D6" d="M0 0h1600v640H0z"/><path stroke="#8D6E5B" d="M30-130.059v1080m1540-1080v1080M225-130.049v900m25-900v900M450-130.049v900m25-900v900M675-130.049v900m25-900v900M900-130.049v900m25-900v900M1125-130.049v900m25-900v900M1350-130.049v900m25-900v900" opacity=".2"/><g clip-path="url(#b)"><path fill="#000" d="M362.279 339.32h-77.352V389H250V251h112.279c17.957 0 30.586 12.617 30.586 30.557v27.206c0 17.923-12.629 30.541-30.586 30.541zm-77.352-62.494v36.668h63.539c5.328 0 8.88-3.548 8.88-8.855v-18.925c0-5.323-3.552-8.872-8.88-8.872h-63.539zm241.807 62.1L555.346 389h-37.689l-28.415-49.68h-44.794V389h-34.927V251h112.28c17.956 0 30.585 12.617 30.585 30.557v27.206c0 16.165-10.458 28.191-25.652 30.163m-82.286-62.1v36.668h63.54c5.328 0 8.879-3.548 8.879-8.855v-18.926c0-5.322-3.551-8.871-8.879-8.871h-63.54zM596.671 251h87.613c16.181 0 27.626 11.434 27.626 27.616v82.8c0 16.166-11.445 27.6-27.626 27.6h-87.613c-16.181 0-27.626-11.434-27.626-27.6v-82.8c0-16.182 11.445-27.616 27.626-27.616m-6.315 69 25.455 43.766h49.332L690.598 320l-25.455-43.782h-49.332zm165.836 69c-16.181 0-27.626-11.434-27.626-27.6v-82.784c0-16.182 11.445-27.616 27.626-27.616h87.613c16.181 0 27.626 11.434 27.626 27.616v27.403h-28.612l-17.168-29.768h-50.318l-25.455 43.782 25.455 43.766h50.318l17.168-29.769h28.612v27.403c0 16.166-11.445 27.6-27.626 27.6h-87.613z"/><path fill="#FF5200" d="m827.428 320.016-13.616-23.279h-26.836l-13.616 23.279 13.616 23.263h26.836z"/><path fill="#000" d="M915.715 251h87.615c16.18 0 27.62 11.434 27.62 27.616v82.8c0 16.166-11.44 27.6-27.62 27.6h-87.615c-16.181 0-27.626-11.434-27.626-27.6v-82.8c0-16.182 11.445-27.616 27.626-27.616m-6.315 69 25.455 43.766h49.332L1009.64 320l-25.453-43.782h-49.332zm255.43 18.926L1193.44 389h-37.69l-28.42-49.68h-44.79V389h-34.93V251h112.28c17.96 0 30.59 12.617 30.59 30.557v27.206c0 16.165-10.46 28.191-25.65 30.163m-82.29-62.1v36.668h63.54c5.33 0 8.88-3.548 8.88-8.855v-18.926c0-5.322-3.55-8.871-8.88-8.871h-63.54zm159.52 55.988v30.36H1350V389h-142.86V251H1350v25.826h-107.94v30.162h75.38v25.826z"/></g></g><defs><clipPath id="a"><path fill="#fff" d="M0 0h1600v640H0z"/></clipPath><clipPath id="b"><path fill="#fff" d="M250 251h1100v138H250z"/></clipPath></defs></svg>
